<?xml version="1.0" standalone="no"?>
<!DOCTYPE svg PUBLIC "-//W3C//DTD SVG 20010904//EN"
 "http://www.w3.org/TR/2001/REC-SVG-20010904/DTD/svg10.dtd">
<svg version="1.0" xmlns="http://www.w3.org/2000/svg"
 width="1383.000000pt" height="1383.000000pt" viewBox="0 0 1383.000000 1383.000000"
 preserveAspectRatio="xMidYMid meet">
<metadata>
Created by potrace 1.14, written by Peter Selinger 2001-2017
</metadata>
<g transform="translate(0.000000,1383.000000) scale(0.100000,-0.100000)"
fill="#000000" stroke="none">
<path d="M2315 13823 c-785 -68 -1461 -462 -1890 -1103 -221 -330 -348 -668
-407 -1085 -19 -136 -19 -9295 0 -9440 62 -463 245 -898 532 -1260 96 -122
312 -330 440 -426 162 -120 243 -170 415 -254 234 -115 474 -190 745 -232 109
-17 342 -18 4765 -18 4423 0 4656 1 4765 18 557 87 1027 323 1415 712 389 388
625 858 712 1415 17 109 18 342 18 4765 0 4437 -1 4655 -18 4765 -43 273 -116
509 -232 746 -305 626 -858 1096 -1528 1298 -107 32 -235 61 -397 88 -59 10
-1038 13 -4685 14 -2536 0 -4628 -1 -4650 -3z m8459 -4617 l356 -353 0 -2115
0 -2114 -72 -33 c-493 -223 -478 -219 -678 -171 -74 17 -143 36 -153 42 -19
10 -187 68 -312 108 -33 11 -88 29 -122 42 l-63 23 0 347 0 347 65 20 c36 10
101 43 147 73 46 30 112 72 148 93 36 21 74 44 86 51 12 7 63 83 114 169 85
143 114 204 135 275 4 16 -126 -108 -344 -325 l-351 -350 0 1055 -1 1055 -23
70 c-13 39 -69 145 -125 239 -87 145 -107 172 -148 199 l-48 31 -250 8 c-145
6 -437 5 -696 0 l-445 -9 -65 -36 c-63 -35 -67 -40 -169 -204 -58 -92 -115
-196 -127 -232 l-23 -65 0 -1409 0 -1410 -36 -91 c-44 -109 -61 -135 -121
-181 -118 -90 -370 -107 -572 -39 -137 47 -313 124 -492 216 l-176 91 -6 375
c-4 206 -7 884 -7 1506 l0 1131 -59 188 c-32 103 -61 190 -63 193 -3 2 -70 27
-149 54 l-144 49 -265 -24 c-146 -13 -353 -31 -460 -40 -107 -9 -231 -20 -275
-25 -44 -5 -129 -14 -190 -20 -104 -10 -115 -14 -187 -57 -43 -24 -86 -57 -96
-71 -49 -70 -168 -291 -193 -360 l-29 -77 0 -1407 0 -1407 -55 -20 c-31 -12
-58 -21 -62 -21 -3 0 -80 -45 -172 -99 -160 -96 -167 -102 -196 -156 -16 -31
-40 -63 -53 -71 -70 -46 -314 -91 -402 -74 -136 26 -219 93 -362 293 l-98 136
0 1774 0 1774 129 349 c164 444 153 420 193 438 29 13 30 15 6 10 -66 -14 -13
60 77 107 41 21 55 38 116 140 38 64 76 119 84 123 20 7 19 -3 -5 -71 -11 -32
-20 -60 -20 -63 1 -14 22 32 41 87 19 58 24 64 67 83 113 50 293 102 497 144
l220 45 3162 0 3162 1 355 -354z"/>
<path d="M9740 9539 c0 -18 43 -125 66 -166 88 -152 155 -261 171 -275 39 -34
322 -196 371 -212 29 -10 55 -16 57 -14 2 2 -146 154 -330 338 -184 184 -335
332 -335 329z"/>
<path d="M3845 9144 c-121 -201 -231 -385 -244 -408 l-25 -41 28 25 c62 56
288 363 322 438 102 222 155 352 142 352 -2 0 -102 -165 -223 -366z"/>
<path d="M3849 8963 c-82 -87 -238 -301 -264 -363 -15 -36 -54 -119 -88 -185
-56 -113 -108 -241 -88 -220 4 6 77 127 161 270 84 143 187 316 230 385 109
177 108 176 49 113z"/>
<path d="M3060 8980 c-8 -5 -10 -10 -5 -10 6 0 17 5 25 10 8 5 11 10 5 10 -5
0 -17 -5 -25 -10z"/>
<path d="M5510 8842 c1 -6 90 -123 303 -396 34 -44 80 -102 102 -131 123 -158
129 -165 157 -165 34 0 34 -5 7 161 -20 124 -24 136 -73 218 l-52 86 -159 96
c-141 84 -286 151 -285 131z"/>
<path d="M4630 8796 c-192 -67 -248 -96 -371 -195 -63 -51 -150 -116 -194
-145 -78 -52 -157 -125 -123 -113 15 5 770 454 813 484 32 21 7 15 -125 -31z"/>
<path d="M7804 8642 c-58 -38 -290 -237 -329 -282 -23 -27 -25 -27 70 28 81
48 159 78 323 127 175 52 261 66 429 72 178 7 268 -2 663 -63 373 -58 562 -95
745 -145 218 -60 207 -59 165 -15 -61 65 -313 258 -375 287 l-60 29 -786 0
-786 0 -59 -38z"/>
<path d="M9620 8615 c55 -58 281 -240 330 -265 155 -78 472 -207 444 -181 -5
5 -180 111 -389 236 -209 126 -391 235 -405 243 -16 10 -9 -1 20 -33z"/>
<path d="M4159 8612 c-572 -341 -737 -442 -723 -442 28 0 323 124 435 183 64
34 381 297 358 297 -3 0 -34 -17 -70 -38z"/>
<path d="M7369 8252 c-24 -27 -91 -109 -147 -183 -90 -116 -114 -156 -174
-289 -70 -153 -132 -310 -125 -316 2 -2 17 20 34 49 16 29 113 189 215 357
217 359 252 420 245 426 -2 3 -24 -17 -48 -44z"/>
<path d="M6060 8132 c0 -4 12 -19 26 -33 l26 -24 -4 30 c-2 22 -9 31 -25 33
-13 2 -23 -1 -23 -6z"/>
<path d="M10431 7445 c0 -402 4 -672 9 -660 5 11 32 137 60 280 29 143 58 286
65 318 13 57 12 66 -36 300 -27 133 -57 280 -66 327 -8 47 -19 92 -24 100 -5
8 -8 -291 -8 -665z"/>
<path d="M11050 5303 c-41 -15 -299 -160 -360 -204 -14 -9 -68 -89 -120 -176
-147 -248 -174 -345 -55 -196 221 275 340 400 485 506 134 99 134 99 50 70z"/>
<path d="M3329 5228 c-23 -40 -53 -93 -67 -118 -80 -140 -187 -266 -286 -332
-32 -23 -100 -60 -150 -85 -50 -24 -80 -41 -66 -38 38 9 153 68 276 142 l111
67 102 173 c86 145 143 263 126 263 -2 0 -23 -33 -46 -72z"/>
</g>
</svg>
