<?xml version="1.0" encoding="UTF-8" standalone="no" ?>
<svg xmlns="http://www.w3.org/2000/svg" xmlns:xlink="http://www.w3.org/1999/xlink" version="1.1" width="20" height="20" viewBox="0 0 1080 1080" xml:space="preserve">
<rect x="0" y="0" width="100%" height="100%" fill="transparent"></rect>
<g transform="matrix(1 0 0 1 540 540)" id="2a89866d-245f-4cc5-b3c6-d93ce5162aab"  >
<rect style="stroke: none; stroke-width: 1; stroke-dasharray: none; stroke-linecap: butt; stroke-dashoffset: 0; stroke-linejoin: miter; stroke-miterlimit: 4; fill: rgb(255,255,255); fill-rule: nonzero; opacity: 1; visibility: hidden;" vector-effect="non-scaling-stroke"  x="-540" y="-540" rx="0" ry="0" width="1080" height="1080" />
</g>
<g transform="matrix(1 0 0 1 540 540)" id="042257e2-ac83-4c94-ae40-407b372b4f38"  >
</g>
<g transform="matrix(-1.59 0 0 -1.59 540 540)"  >
<path style="stroke: rgb(0,0,0); stroke-width: 0; stroke-dasharray: none; stroke-linecap: butt; stroke-dashoffset: 0; stroke-linejoin: miter; stroke-miterlimit: 4; fill: rgb(232,234,237); fill-rule: nonzero; opacity: 1;" vector-effect="non-scaling-stroke"  transform=" translate(-480, 480)" d="M 216 -144 Q 186.3 -144 165.15 -165.15 Q 144 -186.3 144 -216 L 144 -744 Q 144 -773.7 165.15 -794.85 Q 186.3 -816 216 -816 L 480 -816 L 480 -744 L 216 -744 L 216 -216 L 480 -216 L 480 -144 L 216 -144 Z M 648 -312 L 597 -363 L 678 -444 L 384 -444 L 384 -516 L 678 -516 L 597 -597 L 648 -648 L 816 -480 L 648 -312 Z" stroke-linecap="round" />
</g>
</svg>